<?xml version="1.0" standalone="no"?>
<!DOCTYPE svg PUBLIC "-//W3C//DTD SVG 20010904//EN"
 "http://www.w3.org/TR/2001/REC-SVG-20010904/DTD/svg10.dtd">
<svg version="1.0" xmlns="http://www.w3.org/2000/svg"
 width="225.000000pt" height="224.000000pt" viewBox="0 0 225.000000 224.000000"
 preserveAspectRatio="xMidYMid meet">

<g transform="translate(0.000000,224.000000) scale(0.100000,-0.100000)"
fill="#fa5d00" stroke="none">
<path d="M755 2229 c-269 -4 -463 -10 -482 -17 -80 -26 -204 -142 -222 -208
-32 -112 -35 -196 -35 -889 -1 -752 2 -804 50 -902 36 -76 126 -155 200 -177
88 -26 709 -40 1254 -29 l425 9 66 31 c93 43 131 81 184 184 39 76 45 95 37
114 -20 44 -59 47 -862 55 -801 9 -836 11 -899 58 -44 32 -71 99 -82 202 -16
146 -6 929 13 1001 29 110 72 153 184 185 49 14 123 18 453 22 621 7 728 -13
787 -142 35 -77 44 -194 44 -598 l0 -368 187 0 186 0 -6 553 c-7 596 -11 646
-61 732 -14 23 -50 65 -80 92 -81 74 -126 84 -426 94 -265 8 -253 8 -915 -2z"/>
<path d="M922 1520 c-101 -11 -129 -24 -143 -69 -18 -52 -19 -523 -1 -572 30
-86 78 -99 371 -99 215 0 315 10 339 33 24 25 33 89 39 278 5 168 -5 347 -23
392 -3 8 -26 20 -52 27 -57 15 -428 22 -530 10z"/>
</g>
</svg>
